<?xml version="1.0" encoding="utf-8"?>
<!-- Generator: Adobe Illustrator 19.0.1, SVG Export Plug-In . SVG Version: 6.00 Build 0)  -->
<svg version="1.1" id="Logo_artwork" xmlns="http://www.w3.org/2000/svg" xmlns:xlink="http://www.w3.org/1999/xlink" x="0px"
	 y="0px" viewBox="0 0 945.6 575.7" enable-background="new 0 0 945.6 575.7" xml:space="preserve">
<g display="none">
	<text transform="matrix(0.9848 0 -0.1736 0.9848 -162.6186 807.1204)" display="inline"><tspan x="0" y="0" fill="#414042" font-family="'Neris-Black'" font-size="235.0257px">Hip</tspan><tspan x="375.1" y="0" fill="#414042" font-family="'Neris-Light'" font-size="235.0257px">Scheduler</tspan></text>
</g>
<g>
	<path fill="#F49C1E" d="M695.5,493.9c-0.5,2.8-2.6,4.6-5.4,4.6h-47.9c-2.8,0-4.3-1.8-3.8-4.6l17.6-99.7h-92.3l-17.6,99.7
		c-0.5,2.8-2.6,4.6-5.4,4.6h-48.3c-2.8,0-4.3-1.8-3.8-4.6l42.7-242.4c0.5-2.8,2.6-4.6,5.4-4.6h48.3c2.8,0,4.3,1.8,3.8,4.6
		l-16.3,92.6h92.3l16.3-92.6c0.5-2.8,2.6-4.6,5.4-4.6h47.9c2.8,0,4.3,1.8,3.8,4.6L695.5,493.9z"/>
</g>
<g>
	<g>
		<path fill="#F49C1E" d="M809.2,124.7c-2.8,16-18.1,29-34.1,29c-16,0-26.7-13-23.9-29L768.2,29c2.8-16,18.1-29,34.1-29
			c16,0,26.7,13,23.9,29L809.2,124.7z"/>
		<path fill="#F49C1E" d="M555.6,124.7c-2.8,16-18.1,29-34.1,29c-16,0-26.7-13-23.9-29L514.5,29c2.8-16,18.1-29,34.1-29
			c16,0,26.7,13,23.9,29L555.6,124.7z"/>
	</g>
</g>
<path fill="#00ACAC" d="M271.8,299.8c-2.3,12.9-14.5,23.3-27.4,23.3h-71.1c-12.9,0-21.5-10.4-19.2-23.3l10.3-58.2
	c2.3-12.9,14.5-23.3,27.4-23.3h71.1c12.9,0,21.5,10.4,19.2,23.3L271.8,299.8z"/>
<path fill="#00ACAC" d="M166.1,440.2c-2.3,12.9-14.5,23.3-27.4,23.3H80.5c-12.9,0-21.5-10.4-19.2-23.3l8-45.3
	c2.3-12.9,14.5-23.3,27.4-23.3h58.2c12.9,0,21.5,10.4,19.2,23.3L166.1,440.2z"/>
<path fill="#00ACAC" d="M79.3,336.2c-2.3,12.9-14.5,23.3-27.4,23.3H19.5c-12.9,0-21.5-10.4-19.2-23.3l3.4-19.5
	c2.3-12.9,14.5-23.3,27.4-23.3h32.4c12.9,0,21.5,10.4,19.2,23.3L79.3,336.2z"/>
<path fill="#00ACAC" d="M318.2,510c-2.3,12.9-14.5,23.3-27.4,23.3h-32.4c-12.9,0-21.5-10.4-19.2-23.3l3.4-19.5
	c2.3-12.9,14.5-23.3,27.4-23.3h32.4c12.9,0,21.5,10.4,19.2,23.3L318.2,510z"/>
<g>
	<path fill="#00ACAC" d="M354.5,307.1c12.9,0,21.5,10.4,19.2,23.3l-10.3,58.2c-2.3,12.9-14.5,23.3-27.4,23.3h-71.1
		c-12.9,0-21.5-10.4-19.2-23.3l10.3-58.2c2.3-12.9,14.5-23.3,27.4-23.3H354.5z M354.5,274.8h-71.1c-28.5,0-54.2,21.6-59.2,50
		L213.9,383c-5.8,32.7,18.1,61.2,51,61.2H336c28.5,0,54.2-21.6,59.2-50l10.3-58.2C411.2,303.4,387.4,274.8,354.5,274.8z"/>
</g>
<path fill="#00ACAC" d="M910,77.1h-69l-7.6,43.2c-5.1,28.9-32.7,52.4-61.6,52.4c-28.9,0-48.3-23.5-43.2-52.4l7.6-43.2H587.4
	l-7.6,43.2c-5.1,28.9-32.8,52.4-61.7,52.4c-28.9,0-48.3-23.5-43.2-52.4l7.6-43.2h-68.9c-23.4,0-45.8,19-49.9,42.4l-29.6,168.5h22.4
	c3.8,0,7.5,0.5,10.9,1.3l14.5-83.1h514l-57.3,324.8c-1.1,6.3-7.1,11.4-13.4,11.4H334.2c-6.3,0-10.5-5.1-9.4-11.4l20-114.2
	c-3.7,0.8-7.6,1.3-11.4,1.3H311l-20.2,115.2c-4.1,23.4,11.5,42.4,35,42.4h496.4c23.4,0,45.7-19,49.9-42.4l73-413.7
	C949.1,96.1,933.4,77.1,910,77.1z"/>
</svg>
